<?xml version="1.0" encoding="utf-8"?>
<!-- Generator: Adobe Illustrator 26.1.0, SVG Export Plug-In . SVG Version: 6.00 Build 0)  -->
<svg version="1.1" id="Слой_1" xmlns="http://www.w3.org/2000/svg" xmlns:xlink="http://www.w3.org/1999/xlink" x="0px" y="0px"
	 viewBox="0 0 99 53.8" style="enable-background:new 0 0 99 53.8;" xml:space="preserve">
<style type="text/css">
	.st0{fill:url(#SVGID_1_);}
	.st1{fill:url(#SVGID_00000145775614064804253290000011630017697392519335_);}
	.st2{fill:url(#SVGID_00000164485431990911652990000017769252457323608711_);}
	.st3{fill:url(#SVGID_00000119105383596146853110000007405662760947126922_);}
	.st4{fill:url(#SVGID_00000151539977332462113630000003886103000686862741_);}
	.st5{fill:url(#SVGID_00000059297862517861279140000014077538871149971084_);}
	.st6{fill:url(#SVGID_00000025429020967381927910000011750415345884301729_);}
	.st7{fill:url(#SVGID_00000060007128736759123170000014388333841071816859_);}
	.st8{fill:url(#SVGID_00000102539733827275577400000016727641896618379651_);}
	.st9{fill:url(#SVGID_00000068639887788140946640000002836663482229266852_);}
	.st10{fill:url(#SVGID_00000176013361630836398060000013010038633915624382_);}
	.st11{fill:url(#SVGID_00000111174074116444882850000002376161849889033657_);}
	.st12{fill:url(#SVGID_00000113347468104897254210000013524420386414875521_);}
	.st13{fill:url(#SVGID_00000183234250990776005590000006679989726282203565_);}
	.st14{fill:url(#SVGID_00000129186203220290570380000016721096954869836451_);}
	.st15{fill:url(#SVGID_00000091724872752804435200000015339675301966207108_);}
	.st16{fill:url(#SVGID_00000098903090467979691830000002392153808810367140_);}
	.st17{fill:url(#SVGID_00000054960007888830731150000017518103642080229269_);}
	.st18{fill:url(#SVGID_00000055681893697499972400000001806983771161527941_);}
	.st19{fill:url(#SVGID_00000149374339632589613130000015392163738686743726_);}
</style>
<g id="a">
</g>
<g id="b">
	<g id="c">
		<g>
			<g>
				
					<linearGradient id="SVGID_1_" gradientUnits="userSpaceOnUse" x1="37.7975" y1="24.0573" x2="17.8925" y2="43.9623" gradientTransform="matrix(1 0 0 -1 0 53.8898)">
					<stop  offset="0" style="stop-color:#207BFF"/>
					<stop  offset="1" style="stop-color:#03F2FC"/>
				</linearGradient>
				<polygon class="st0" points="31.5,36.2 29.3,36.2 29.3,10 22.3,6.5 23.2,4.6 31.5,8.7 				"/>
				
					<linearGradient id="SVGID_00000067218651156841413040000001092264342993531568_" gradientUnits="userSpaceOnUse" x1="21.6767" y1="10.1065" x2="1.2971" y2="30.486" gradientTransform="matrix(1 0 0 -1 0 53.8898)">
					<stop  offset="0" style="stop-color:#207BFF"/>
					<stop  offset="1" style="stop-color:#03F2FC"/>
				</linearGradient>
				<path style="fill:url(#SVGID_00000067218651156841413040000001092264342993531568_);" d="M12.3,53.1l-1.6-0.9
					C4.1,48.4,0,41.2,0,33.6S4.1,18.8,10.7,15l1.6-0.9v13.2h-2.1v-9.4c-5,3.6-8.1,9.5-8.1,15.7s3.1,12.1,8.1,15.7V40h2.1L12.3,53.1
					L12.3,53.1z"/>
				
					<linearGradient id="SVGID_00000104698564577824062300000008684190528696387004_" gradientUnits="userSpaceOnUse" x1="29.13" y1="25.5998" x2="9.88" y2="44.8498" gradientTransform="matrix(1 0 0 -1 0 53.8898)">
					<stop  offset="0" style="stop-color:#207BFF"/>
					<stop  offset="1" style="stop-color:#03F2FC"/>
				</linearGradient>
				<polygon style="fill:url(#SVGID_00000104698564577824062300000008684190528696387004_);" points="16.2,36.2 14,36.2 14,4.9 
					23.8,0 23.8,33.6 21.7,33.6 21.7,3.4 16.2,6.2 				"/>
				
					<linearGradient id="SVGID_00000080207283264929169280000016270465302741676195_" gradientUnits="userSpaceOnUse" x1="44.2046" y1="10.1167" x2="23.8357" y2="30.4856" gradientTransform="matrix(1 0 0 -1 0 53.8898)">
					<stop  offset="0" style="stop-color:#207BFF"/>
					<stop  offset="1" style="stop-color:#03F2FC"/>
				</linearGradient>
				<path style="fill:url(#SVGID_00000080207283264929169280000016270465302741676195_);" d="M33.2,53.1v-39l1.6,0.9
					c4.6,2.7,8,6.9,9.7,11.9l-2,0.7c-1.3-3.9-3.8-7.3-7.1-9.7v14.7h10.2v1.1c0,7.6-4.1,14.8-10.7,18.6L33.2,53.1L33.2,53.1z
					 M35.3,34.7v14.7c4.7-3.4,7.7-8.8,8-14.7H35.3z"/>
				
					<linearGradient id="SVGID_00000139282207639899167940000009411245351166345133_" gradientUnits="userSpaceOnUse" x1="30.41" y1="-0.9802" x2="15.09" y2="14.3398" gradientTransform="matrix(1 0 0 -1 0 53.8898)">
					<stop  offset="0" style="stop-color:#207BFF"/>
					<stop  offset="1" style="stop-color:#03F2FC"/>
				</linearGradient>
				<path style="fill:url(#SVGID_00000139282207639899167940000009411245351166345133_);" d="M31.5,53.8H14V40.6l8.7-4.4l8.7,4.4
					C31.5,40.6,31.5,53.8,31.5,53.8z M16.2,51.7h13.2v-9.8l-6.6-3.3l-6.6,3.3V51.7z"/>
				
					<linearGradient id="SVGID_00000001641562843830756240000013692965845164668575_" gradientUnits="userSpaceOnUse" x1="20.0875" y1="43.7673" x2="17.7575" y2="46.0973" gradientTransform="matrix(1 0 0 -1 0 53.8898)">
					<stop  offset="0" style="stop-color:#207BFF"/>
					<stop  offset="1" style="stop-color:#03F2FC"/>
				</linearGradient>
				
					<rect x="17.1" y="8.4" style="fill:url(#SVGID_00000001641562843830756240000013692965845164668575_);" width="3.6" height="1"/>
				
					<linearGradient id="SVGID_00000039104544034417116870000005117666237051564182_" gradientUnits="userSpaceOnUse" x1="20.0875" y1="40.0673" x2="17.7575" y2="42.3973" gradientTransform="matrix(1 0 0 -1 0 53.8898)">
					<stop  offset="0" style="stop-color:#207BFF"/>
					<stop  offset="1" style="stop-color:#03F2FC"/>
				</linearGradient>
				
					<rect x="17.1" y="12.1" style="fill:url(#SVGID_00000039104544034417116870000005117666237051564182_);" width="3.6" height="1"/>
				
					<linearGradient id="SVGID_00000018234915711009807900000001970234376435701638_" gradientUnits="userSpaceOnUse" x1="20.0875" y1="36.3773" x2="17.7575" y2="38.7073" gradientTransform="matrix(1 0 0 -1 0 53.8898)">
					<stop  offset="0" style="stop-color:#207BFF"/>
					<stop  offset="1" style="stop-color:#03F2FC"/>
				</linearGradient>
				
					<rect x="17.1" y="15.8" style="fill:url(#SVGID_00000018234915711009807900000001970234376435701638_);" width="3.6" height="1"/>
				
					<linearGradient id="SVGID_00000051347254229003255470000003303665131609893015_" gradientUnits="userSpaceOnUse" x1="17.1" y1="20.045" x2="20.74" y2="20.045" gradientTransform="matrix(-1 0 0 1 37.84 0)">
					<stop  offset="0" style="stop-color:#207BFF"/>
					<stop  offset="1" style="stop-color:#03F2FC"/>
				</linearGradient>
				
					<rect x="17.1" y="19.5" style="fill:url(#SVGID_00000051347254229003255470000003303665131609893015_);" width="3.6" height="1"/>
				
					<linearGradient id="SVGID_00000029743263022816512390000003318809440720854185_" gradientUnits="userSpaceOnUse" x1="20.0875" y1="28.9873" x2="17.7575" y2="31.3173" gradientTransform="matrix(1 0 0 -1 0 53.8898)">
					<stop  offset="0" style="stop-color:#207BFF"/>
					<stop  offset="1" style="stop-color:#03F2FC"/>
				</linearGradient>
				
					<rect x="17.1" y="23.2" style="fill:url(#SVGID_00000029743263022816512390000003318809440720854185_);" width="3.6" height="1"/>
				
					<linearGradient id="SVGID_00000179624677066294090010000000785501529108898951_" gradientUnits="userSpaceOnUse" x1="20.0875" y1="25.2873" x2="17.7575" y2="27.6173" gradientTransform="matrix(1 0 0 -1 0 53.8898)">
					<stop  offset="0" style="stop-color:#207BFF"/>
					<stop  offset="1" style="stop-color:#03F2FC"/>
				</linearGradient>
				
					<rect x="17.1" y="26.9" style="fill:url(#SVGID_00000179624677066294090010000000785501529108898951_);" width="3.6" height="1"/>
				
					<linearGradient id="SVGID_00000053514332455328334640000009515320315170292661_" gradientUnits="userSpaceOnUse" x1="27.74" y1="34.6098" x2="25.41" y2="36.9298" gradientTransform="matrix(1 0 0 -1 0 53.8898)">
					<stop  offset="0" style="stop-color:#207BFF"/>
					<stop  offset="1" style="stop-color:#03F2FC"/>
				</linearGradient>
				
					<rect x="24.8" y="17.6" style="fill:url(#SVGID_00000053514332455328334640000009515320315170292661_);" width="3.6" height="1"/>
				
					<linearGradient id="SVGID_00000035496983007864606800000002799975742501684105_" gradientUnits="userSpaceOnUse" x1="27.7375" y1="38.2473" x2="25.4075" y2="40.5773" gradientTransform="matrix(1 0 0 -1 0 53.8898)">
					<stop  offset="0" style="stop-color:#207BFF"/>
					<stop  offset="1" style="stop-color:#03F2FC"/>
				</linearGradient>
				<rect x="24.8" y="14" style="fill:url(#SVGID_00000035496983007864606800000002799975742501684105_);" width="3.6" height="1"/>
				
					<linearGradient id="SVGID_00000142153168181992489170000010083316046855434128_" gradientUnits="userSpaceOnUse" x1="27.7375" y1="30.9073" x2="25.4075" y2="33.2373" gradientTransform="matrix(1 0 0 -1 0 53.8898)">
					<stop  offset="0" style="stop-color:#207BFF"/>
					<stop  offset="1" style="stop-color:#03F2FC"/>
				</linearGradient>
				
					<rect x="24.8" y="21.3" style="fill:url(#SVGID_00000142153168181992489170000010083316046855434128_);" width="3.6" height="1"/>
				
					<linearGradient id="SVGID_00000044857839449531324140000002211528344314880702_" gradientUnits="userSpaceOnUse" x1="27.74" y1="27.2198" x2="25.41" y2="29.5398" gradientTransform="matrix(1 0 0 -1 0 53.8898)">
					<stop  offset="0" style="stop-color:#207BFF"/>
					<stop  offset="1" style="stop-color:#03F2FC"/>
				</linearGradient>
				<rect x="24.8" y="25" style="fill:url(#SVGID_00000044857839449531324140000002211528344314880702_);" width="3.6" height="1"/>
				
					<linearGradient id="SVGID_00000056423608762627706150000003895468514397061267_" gradientUnits="userSpaceOnUse" x1="27.7375" y1="23.6673" x2="25.4075" y2="25.9973" gradientTransform="matrix(1 0 0 -1 0 53.8898)">
					<stop  offset="0" style="stop-color:#207BFF"/>
					<stop  offset="1" style="stop-color:#03F2FC"/>
				</linearGradient>
				
					<rect x="24.8" y="28.5" style="fill:url(#SVGID_00000056423608762627706150000003895468514397061267_);" width="3.6" height="1"/>
				
					<linearGradient id="SVGID_00000147933766019101423840000013893694331315147152_" gradientUnits="userSpaceOnUse" x1="21.9125" y1="8.2423" x2="19.7025" y2="10.4523" gradientTransform="matrix(1 0 0 -1 0 53.8898)">
					<stop  offset="0" style="stop-color:#207BFF"/>
					<stop  offset="1" style="stop-color:#03F2FC"/>
				</linearGradient>
				
					<rect x="19.5" y="43.6" style="fill:url(#SVGID_00000147933766019101423840000013893694331315147152_);" width="2.6" height="1.8"/>
				
					<linearGradient id="SVGID_00000047045129864016878240000004518790466083366590_" gradientUnits="userSpaceOnUse" x1="25.8025" y1="8.2423" x2="23.5925" y2="10.4523" gradientTransform="matrix(1 0 0 -1 0 53.8898)">
					<stop  offset="0" style="stop-color:#207BFF"/>
					<stop  offset="1" style="stop-color:#03F2FC"/>
				</linearGradient>
				
					<rect x="23.4" y="43.6" style="fill:url(#SVGID_00000047045129864016878240000004518790466083366590_);" width="2.6" height="1.8"/>
				
					<linearGradient id="SVGID_00000029751967111068426120000002961812907197365919_" gradientUnits="userSpaceOnUse" x1="25.7975" y1="4.5973" x2="23.5875" y2="6.8073" gradientTransform="matrix(1 0 0 -1 0 53.8898)">
					<stop  offset="0" style="stop-color:#207BFF"/>
					<stop  offset="1" style="stop-color:#03F2FC"/>
				</linearGradient>
				
					<rect x="23.4" y="47.3" style="fill:url(#SVGID_00000029751967111068426120000002961812907197365919_);" width="2.6" height="1.8"/>
				
					<linearGradient id="SVGID_00000117659451705090668000000007586652903958731652_" gradientUnits="userSpaceOnUse" x1="21.9075" y1="4.5973" x2="19.6975" y2="6.8073" gradientTransform="matrix(1 0 0 -1 0 53.8898)">
					<stop  offset="0" style="stop-color:#207BFF"/>
					<stop  offset="1" style="stop-color:#03F2FC"/>
				</linearGradient>
				
					<rect x="19.5" y="47.3" style="fill:url(#SVGID_00000117659451705090668000000007586652903958731652_);" width="2.6" height="1.8"/>
			</g>
			<g fill="#ffffff">
				<g>
					<path d="M53.5,28.9c-0.7,0-1.3-0.2-1.7-0.6s-0.5-1-0.5-1.8V23c0-0.8,0.2-1.4,0.5-1.8c0.4-0.4,0.9-0.6,1.7-0.6H58
						c0.7,0,1.3,0.2,1.7,0.6c0.4,0.4,0.5,1,0.5,1.8v1h-2.3v-0.5c0-0.3,0-0.5-0.2-0.6s-0.3-0.2-0.5-0.2h-2.9c-0.3,0-0.4,0-0.5,0.2
						s-0.2,0.3-0.2,0.6V26c0,0.3,0,0.5,0.2,0.6c0.1,0.1,0.3,0.2,0.5,0.2h2.9c0.2,0,0.4,0,0.5-0.2c0.1-0.1,0.2-0.3,0.2-0.6v-0.6h2.3
						v1.1c0,0.8-0.2,1.4-0.5,1.8c-0.4,0.4-0.9,0.6-1.7,0.6L53.5,28.9L53.5,28.9z"/>
					<path d="M69.5,20.6v2.2h-3.1v6H64v-6h-3.1v-2.2H69.5L69.5,20.6z"/>
					<path d="M70.2,28.9v-8.2h6.8c0.7,0,1.2,0.2,1.5,0.5s0.5,0.9,0.5,1.6v1.6c0,0.8-0.2,1.3-0.5,1.6s-0.8,0.5-1.5,0.5h-4.3v2.4H70.2
						z M72.6,24.6h3.3c0.2,0,0.4,0,0.5-0.1c0.1-0.1,0.1-0.3,0.1-0.5v-0.8c0-0.2,0-0.4-0.1-0.5s-0.2-0.1-0.5-0.1h-3.3V24.6L72.6,24.6
						z"/>
					<path d="M81.8,28.9c-0.7,0-1.3-0.2-1.7-0.6s-0.5-1-0.5-1.8V23c0-0.8,0.2-1.4,0.5-1.8c0.4-0.4,0.9-0.6,1.7-0.6h4.9
						c0.7,0,1.3,0.2,1.7,0.6c0.4,0.4,0.5,1,0.5,1.8v3.5c0,0.8-0.2,1.4-0.5,1.8s-0.9,0.6-1.7,0.6H81.8z M82.7,26.7h3.1
						c0.2,0,0.4,0,0.5-0.2c0.1-0.1,0.2-0.3,0.2-0.6v-2.4c0-0.3-0.1-0.5-0.2-0.6s-0.3-0.2-0.5-0.2h-3.1c-0.3,0-0.4,0-0.5,0.2
						s-0.2,0.3-0.2,0.6V26c0,0.3,0.1,0.5,0.2,0.6S82.5,26.7,82.7,26.7z"/>
					<path d="M96.9,20.6H99v8.2h-2.3v-5l-4.9,5h-1.9v-8.2h2.3v4.9C92.1,25.5,96.9,20.6,96.9,20.6z M92.8,20.2
						c-0.5,0-0.8-0.3-0.8-0.9v-0.6h1.5V19c0,0.2,0.1,0.3,0.3,0.3H95c0.2,0,0.3-0.1,0.3-0.3v-0.3h1.5v0.6c0,0.6-0.3,0.9-0.8,0.9H92.8
						L92.8,20.2z"/>
					<path d="M51.3,40.5v-8.2h8.2v1.9h-5.8v1.2h4.7c0.6,0,1,0.2,1.3,0.5c0.3,0.3,0.4,0.8,0.4,1.4v1.3c0,0.6-0.1,1.1-0.4,1.4
						s-0.7,0.5-1.3,0.5L51.3,40.5L51.3,40.5z M53.8,38.6h3.5c0.2,0,0.3,0,0.4-0.1c0.1-0.1,0.1-0.2,0.1-0.4v-0.5c0-0.2,0-0.3-0.1-0.4
						c-0.1-0.1-0.2-0.1-0.4-0.1h-3.5V38.6L53.8,38.6z"/>
					<path d="M68.2,40.5l-0.6-1.3h-4l-0.6,1.3h-2.6l3.9-8.2h2.7l3.7,8.2H68.2L68.2,40.5z M64.3,37.4h2.6l-1.2-2.9L64.3,37.4z"/>
					<path d="M79.4,36.3c0.6,0.2,0.9,0.7,0.9,1.6v0.8c0,0.6-0.1,1.1-0.4,1.4s-0.7,0.5-1.3,0.5H73c-0.6,0-1-0.2-1.3-0.5
						c-0.3-0.3-0.4-0.8-0.4-1.4v-1.2h2.3v0.7c0,0.2,0,0.3,0.1,0.4c0.1,0.1,0.2,0.1,0.4,0.1h3.4c0.2,0,0.3,0,0.4-0.1
						c0.1-0.1,0.1-0.2,0.1-0.4v-0.5c0-0.2,0-0.3-0.1-0.4c-0.1-0.1-0.2-0.1-0.4-0.1h-2.8v-1.6h2.6c0.2,0,0.3,0,0.4-0.1
						c0.1-0.1,0.1-0.2,0.1-0.4v-0.3c0-0.2,0-0.3-0.1-0.4c-0.1-0.1-0.2-0.1-0.4-0.1h-3.2c-0.2,0-0.3,0-0.4,0.1
						c-0.1,0.1-0.1,0.2-0.1,0.4v0.6h-2.3v-1.1c0-0.6,0.1-1.1,0.4-1.4s0.7-0.5,1.3-0.5h5.4c0.6,0,1,0.2,1.3,0.5s0.4,0.8,0.4,1.4v0.6
						C80.2,35.6,80,36.1,79.4,36.3L79.4,36.3z"/>
					<path d="M88.3,40.5l-0.6-1.3h-3.9l-0.6,1.3h-2.6l3.9-8.2h2.7l3.7,8.2H88.3L88.3,40.5z M84.4,37.4h2.6l-1.2-2.9L84.4,37.4z"/>
				</g>
				<g>
					<path d="M53.9,50.2h-2.4v-4.8h2.4c0.4,0,0.8,0.1,1,0.3c0.2,0.2,0.4,0.5,0.4,0.9c0,0.3-0.1,0.5-0.2,0.7s-0.4,0.3-0.6,0.4
						c0.3,0,0.5,0.2,0.7,0.4c0.2,0.2,0.3,0.5,0.3,0.8c0,0.4-0.1,0.7-0.4,0.9C54.7,50,54.3,50.1,53.9,50.2L53.9,50.2z M53.7,47.3
						c0.2,0,0.4-0.1,0.5-0.2c0.1-0.1,0.2-0.3,0.2-0.5s-0.1-0.3-0.2-0.5s-0.3-0.2-0.5-0.2h-1.3v1.2C52.3,47.3,53.7,47.3,53.7,47.3z
						 M53.7,49.4c0.2,0,0.4-0.1,0.5-0.2s0.2-0.3,0.2-0.5c0-0.2-0.1-0.3-0.2-0.5c-0.1-0.1-0.3-0.2-0.5-0.2h-1.4v1.3H53.7z"/>
					<path d="M60.1,49.5c-0.5,0.5-1,0.7-1.8,0.7S57,50,56.6,49.5c-0.5-0.5-0.7-1.1-0.7-1.8s0.2-1.3,0.7-1.8s1-0.7,1.8-0.7
						s1.3,0.2,1.8,0.7s0.7,1.1,0.7,1.8S60.6,49.1,60.1,49.5z M58.3,49.5c0.5,0,0.9-0.2,1.2-0.5c0.3-0.3,0.4-0.8,0.4-1.2
						s-0.2-0.9-0.4-1.2c-0.3-0.3-0.7-0.5-1.2-0.5s-0.9,0.2-1.2,0.5s-0.4,0.7-0.4,1.2s0.2,0.9,0.4,1.2C57.5,49.3,57.8,49.5,58.3,49.5
						L58.3,49.5z"/>
					<path d="M61.1,50.2v-0.8c0.3,0,0.5-0.1,0.6-0.3s0.2-0.7,0.3-1.3l0.3-2.5h3.3v4.8h-0.8v-4.1h-1.7l-0.2,1.8
						c-0.1,0.5-0.1,0.9-0.2,1.2c-0.1,0.3-0.2,0.6-0.4,0.7c-0.2,0.2-0.3,0.3-0.5,0.3C61.5,50.2,61.3,50.2,61.1,50.2L61.1,50.2z"/>
					<path d="M70.8,50.2h-1l-1.3-1.9l-1.3,1.9h-1l1.8-2.5l-1.7-2.3h1l1.2,1.8l1.2-1.8h1L69,47.7L70.8,50.2L70.8,50.2z"/>
					<path d="M75.1,49.5c-0.5,0.5-1.1,0.7-1.8,0.7S72,50,71.6,49.5c-0.5-0.5-0.7-1.1-0.7-1.8s0.2-1.3,0.7-1.8s1.1-0.7,1.8-0.7
						s1.3,0.2,1.8,0.7s0.7,1.1,0.7,1.8S75.5,49.1,75.1,49.5z M73.3,49.5c0.5,0,0.9-0.2,1.2-0.5c0.3-0.3,0.4-0.8,0.4-1.2
						s-0.2-0.9-0.4-1.2S73.8,46,73.3,46s-0.9,0.2-1.2,0.5s-0.4,0.7-0.4,1.2s0.2,0.9,0.4,1.2S72.8,49.5,73.3,49.5L73.3,49.5z"/>
					<path d="M80.7,50.2h-0.8v-2.1h-2.5v2.1h-0.8v-4.8h0.8v2h2.5v-2h0.8V50.2z"/>
					<path d="M85.6,50.2h-1l-1.6-2l-0.4,0.5v1.5h-0.8v-4.8h0.8v2.3l1.9-2.3h1.1l-2,2.3C83.5,47.6,85.6,50.2,85.6,50.2z"/>
					<path d="M90.8,50.2h-1l-0.3-0.9h-2.2l-0.3,0.9h-1l1.9-4.8h1.1L90.8,50.2L90.8,50.2z M89.2,48.5l-0.9-2.3l-0.9,2.3H89.2
						L89.2,48.5z"/>
				</g>
			</g>
		</g>
	</g>
</g>
</svg>
